<svg width="18" height="18" viewBox="0 0 18 18" fill="none" xmlns="http://www.w3.org/2000/svg">
<path fill-rule="evenodd" clip-rule="evenodd" d="M7.875 6.62497H9.625V4.87497H7.875V6.62497ZM7.875 13.625H9.625V8.37503H7.875V13.625ZM8.74125 18C3.91125 18 0 14.08 0 9.25C0 4.42 3.91125 0.499998 8.74125 0.499998C13.58 0.499998 17.5 4.42 17.5 9.25C17.5 14.08 13.58 18 8.74125 18ZM8.74989 2.25003C4.88239 2.25003 1.74989 5.38253 1.74989 9.25003C1.74989 13.1175 4.88239 16.25 8.74989 16.25C12.6174 16.25 15.7499 13.1175 15.7499 9.25003C15.7499 5.38253 12.6174 2.25003 8.74989 2.25003Z" fill="#5D3D31"/>
</svg>
