<svg width="192" height="64" viewBox="0 0 192 64" fill="none" xmlns="http://www.w3.org/2000/svg">
  <path
    d="M59.9342 30.95L56.9469 37.9657C56.8595 38.1621 56.7093 38.3235 56.5201 38.4243L50.9722 41.6171C50.75 41.7437 50.568 41.931 50.4473 42.1571L49.4358 44.1157C49.3819 44.2181 49.3079 44.3085 49.2182 44.3814L48.3646 45.0585C48.2438 45.1558 48.0927 45.2074 47.9379 45.2043H46.6235C46.4983 45.2038 46.3765 45.2459 46.2781 45.3237C46.1797 45.4015 46.1104 45.5104 46.0815 45.6328L45.7871 46.9614C45.772 47.0305 45.7425 47.0957 45.7006 47.1526C45.6587 47.2094 45.6052 47.2567 45.5438 47.2914L44.5025 47.9128C44.4486 47.9436 44.4034 47.9877 44.3712 48.041C44.3391 48.0942 44.3211 48.1549 44.3189 48.2171C44.3189 48.7014 44.3189 49.9314 44.3189 50.5357C44.3223 50.7554 44.255 50.9704 44.1269 51.1485L43.0856 52.6014L42.4966 54.3157C42.1595 55.2971 41.8011 56.3385 41.784 56.3642C41.7415 56.4412 41.7236 56.5295 41.7328 56.6171L42.1596 59.4157L41.8565 60.1785H59.3922C59.5303 60.1785 59.6628 60.1234 59.7604 60.0254C59.8581 59.9273 59.9129 59.7943 59.9129 59.6557V30.7871C59.9137 30.8345 59.9034 30.8815 59.883 30.9243L59.9342 30.95ZM44.0758 59.8143C44.0763 59.8313 44.0734 59.8483 44.0672 59.8642C44.061 59.88 44.0515 59.8944 44.0395 59.9065C44.0275 59.9186 44.0132 59.928 43.9974 59.9343C43.9816 59.9405 43.9647 59.9434 43.9477 59.9428H43.3886C43.3715 59.9434 43.3543 59.9405 43.3383 59.9343C43.3223 59.9281 43.3077 59.9187 43.2954 59.9067C43.283 59.8947 43.2732 59.8804 43.2665 59.8645C43.2598 59.8486 43.2563 59.8315 43.2563 59.8143V59.3214C43.2563 59.2862 43.2702 59.2524 43.2951 59.2275C43.3199 59.2026 43.3535 59.1885 43.3886 59.1885H43.9477C43.9649 59.1885 43.9819 59.192 43.9977 59.1987C44.0135 59.2054 44.0279 59.2153 44.0398 59.2277C44.0518 59.2401 44.061 59.2548 44.0672 59.2709C44.0734 59.287 44.0763 59.3042 44.0758 59.3214V59.8143Z"
    fill="#B70039" />
  <path
    d="M50.388 3.83424H19.58L18.8246 7.19425C18.8033 7.28152 18.8033 7.37269 18.8246 7.45996L19.3794 9.40567C19.4093 9.51597 19.4718 9.61461 19.5586 9.68854L21.334 11.2357C21.3741 11.2677 21.4236 11.2851 21.4748 11.2851C21.5259 11.2851 21.5756 11.2677 21.6156 11.2357L23.1008 10.1771C23.1939 10.1133 23.3039 10.0789 23.4166 10.0785H25.0426C25.0689 10.0768 25.0953 10.0818 25.1193 10.0929C25.1432 10.1041 25.164 10.1211 25.1797 10.1425C25.1954 10.1638 25.2055 10.1887 25.2092 10.215C25.2128 10.2412 25.2099 10.268 25.2005 10.2928L24.347 12.29C24.3388 12.309 24.3347 12.3295 24.3348 12.3503C24.3349 12.371 24.3394 12.3915 24.3478 12.4104C24.3562 12.4293 24.3685 12.4463 24.3838 12.4602C24.3991 12.4742 24.417 12.4848 24.4366 12.4914L26.7368 13.3485C26.7679 13.3592 26.795 13.3795 26.8141 13.4064C26.8332 13.4333 26.8435 13.4655 26.8435 13.4985L26.7966 14.5657C26.795 14.6007 26.8051 14.6353 26.8252 14.664C26.8452 14.6926 26.8742 14.7139 26.9076 14.7243L29.9375 15.7271C29.9862 15.7432 30.0302 15.7712 30.0656 15.8085L30.8935 16.6357C30.9306 16.6715 30.956 16.7179 30.9661 16.7685L31.3245 18.77C31.3305 18.7965 31.3433 18.8211 31.3615 18.8412C31.3797 18.8614 31.4029 18.8766 31.4286 18.8852C31.4543 18.8938 31.4818 18.8956 31.5084 18.8904C31.535 18.8853 31.5599 18.8733 31.5806 18.8557C32.7115 18.1143 35.6989 16.4814 36.3006 16.1514C36.3711 16.1128 36.4509 16.095 36.531 16.1H36.8895C36.9444 16.1045 36.9974 16.1216 37.0448 16.1498C37.0921 16.178 37.1324 16.2166 37.1626 16.2628L37.3163 16.4943C37.3236 16.5066 37.3335 16.5173 37.3452 16.5254C37.357 16.5336 37.3704 16.539 37.3845 16.5414L41.6095 17.5828H41.7248L42.7789 17.6257C42.8536 17.6289 42.9267 17.6495 42.9923 17.6857L48.6127 20.7285C48.7109 20.7815 48.7945 20.858 48.856 20.9514L50.4222 23.3C50.467 23.3669 50.5256 23.4234 50.5941 23.4656C50.6626 23.5077 50.7393 23.5346 50.819 23.5443L51.4592 23.6214C51.4991 23.6243 51.5381 23.6344 51.5744 23.6514L59.5634 27.3671C59.6913 27.4275 59.7995 27.5233 59.8751 27.6432C59.9507 27.7632 59.9906 27.9023 59.9902 28.0443V13.4643C59.9902 12.1985 59.7418 10.9452 59.2591 9.77604C58.7763 8.60683 58.0688 7.54466 57.177 6.65027C56.2852 5.75587 55.2265 5.04679 54.0616 4.5636C52.8967 4.0804 51.6484 3.83255 50.388 3.83424ZM34.6362 6.80426C34.6356 6.79096 34.6378 6.77766 34.6424 6.76521C34.6471 6.75275 34.6542 6.74136 34.6634 6.73175C34.6726 6.72214 34.6836 6.7145 34.6958 6.70928C34.708 6.70406 34.7211 6.70137 34.7343 6.70138H35.4386C35.4518 6.70137 35.4649 6.70406 35.4771 6.70928C35.4893 6.7145 35.5003 6.72214 35.5095 6.73175C35.5187 6.74136 35.5258 6.75275 35.5305 6.76521C35.5351 6.77766 35.5373 6.79096 35.5367 6.80426V7.43425C35.5367 7.46039 35.5264 7.48547 35.508 7.50396C35.4895 7.52244 35.4646 7.53281 35.4386 7.53281H34.7557C34.7428 7.53281 34.73 7.53028 34.7181 7.52533C34.7062 7.52038 34.6954 7.51311 34.6863 7.50396C34.6772 7.49481 34.67 7.48393 34.6651 7.47197C34.6601 7.46001 34.6576 7.44719 34.6576 7.43425L34.6362 6.80426ZM30.9745 6.25139C30.9745 6.22411 30.9853 6.19796 31.0045 6.17867C31.0237 6.15938 31.0498 6.14853 31.077 6.14853H31.7769C31.8041 6.14853 31.8301 6.15938 31.8493 6.17867C31.8685 6.19796 31.8793 6.22411 31.8793 6.25139V6.8814C31.8793 6.89471 31.8767 6.90789 31.8715 6.92014C31.8663 6.93239 31.8587 6.94344 31.8491 6.95265C31.8395 6.96187 31.8282 6.96904 31.8158 6.97374C31.8034 6.97843 31.7901 6.98054 31.7769 6.97996H31.077C31.0637 6.98054 31.0505 6.97843 31.0381 6.97374C31.0257 6.96904 31.0144 6.96187 31.0049 6.95265C30.9953 6.94344 30.9876 6.93239 30.9825 6.92014C30.9773 6.90789 30.9745 6.89471 30.9745 6.8814V6.25139ZM29.5279 5.30426C29.5279 5.29132 29.5304 5.2785 29.5354 5.26654C29.5403 5.25458 29.5475 5.2437 29.5566 5.23455C29.5657 5.2254 29.5766 5.21813 29.5885 5.21318C29.6004 5.20822 29.6131 5.20567 29.626 5.20567H30.3301C30.343 5.20567 30.3558 5.20822 30.3677 5.21318C30.3796 5.21813 30.3905 5.2254 30.3996 5.23455C30.4087 5.2437 30.4159 5.25458 30.4209 5.26654C30.4258 5.2785 30.4284 5.29132 30.4284 5.30426V5.93425C30.4289 5.94755 30.4268 5.96084 30.4221 5.9733C30.4174 5.98576 30.4103 5.99712 30.4012 6.00673C30.392 6.01634 30.381 6.02401 30.3688 6.02923C30.3566 6.03445 30.3434 6.03711 30.3301 6.0371H29.6345C29.6213 6.03711 29.6082 6.03445 29.596 6.02923C29.5838 6.02401 29.5728 6.01634 29.5636 6.00673C29.5544 5.99712 29.5473 5.98576 29.5426 5.9733C29.538 5.96084 29.5358 5.94755 29.5364 5.93425L29.5279 5.30426ZM33.6973 12.86C33.6973 12.8861 33.687 12.9112 33.6686 12.9297C33.6502 12.9481 33.6252 12.9585 33.5992 12.9585H31.794C31.768 12.9585 31.743 12.9481 31.7246 12.9297C31.7062 12.9112 31.6958 12.8861 31.6958 12.86V11.6985C31.6958 11.6724 31.7062 11.6473 31.7246 11.6288C31.743 11.6103 31.768 11.6 31.794 11.6H33.5992C33.6252 11.6 33.6502 11.6103 33.6686 11.6288C33.687 11.6473 33.6973 11.6724 33.6973 11.6985V12.86ZM35.0075 10.9142H33.3559C33.343 10.9148 33.3301 10.9128 33.318 10.9084C33.3059 10.904 33.2948 10.8972 33.2853 10.8884C33.2758 10.8797 33.268 10.8691 33.2626 10.8574C33.2571 10.8456 33.254 10.8329 33.2535 10.82V10.0871C33.2513 10.0606 33.239 10.0359 33.2191 10.0184C33.1992 10.0008 33.1733 9.99163 33.1468 9.99283H32.2933C32.2798 9.99287 32.2664 9.99021 32.254 9.98506C32.2415 9.97992 32.2303 9.97237 32.2208 9.96283L31.2903 9.10569C31.2741 9.09628 31.2557 9.09133 31.237 9.09133C31.2183 9.09133 31.1999 9.09628 31.1836 9.10569L28.2988 9.98854C28.2818 9.99792 28.2627 10.0028 28.2433 10.0028C28.2239 10.0028 28.2049 9.99792 28.1879 9.98854L27.3343 9.21712C27.3209 9.20613 27.311 9.19148 27.3057 9.17495C27.3004 9.15842 27.3 9.14071 27.3045 9.12394C27.309 9.10718 27.3182 9.09208 27.3311 9.08047C27.344 9.06887 27.3599 9.06124 27.3769 9.05852L30.1851 8.20138C30.2111 8.19066 30.2402 8.19066 30.2661 8.20138L32.2336 9.10569L34.2222 10.0228H34.2521L35.063 10.7728C35.0717 10.7854 35.0772 10.8 35.0791 10.8153C35.081 10.8306 35.0792 10.8461 35.0737 10.8604C35.0682 10.8748 35.0593 10.8876 35.0477 10.8977C35.0362 10.9079 35.0224 10.915 35.0075 10.9185V10.9142ZM38.6478 12.6885H34.7557C34.7379 12.6887 34.7205 12.6822 34.7071 12.6703C34.6938 12.6584 34.6853 12.642 34.6832 12.6242V11.8228C34.6837 11.8138 34.686 11.805 34.69 11.7969C34.6939 11.7888 34.6994 11.7815 34.7061 11.7755C34.7128 11.7696 34.7207 11.765 34.7292 11.7621C34.7377 11.7592 34.7467 11.758 34.7557 11.7585H35.6903C35.7099 11.7586 35.7289 11.751 35.7432 11.7375C35.7575 11.7239 35.7661 11.7054 35.7672 11.6857V10.9185C35.7677 10.909 35.7701 10.8996 35.7743 10.891C35.7784 10.8823 35.7842 10.8746 35.7914 10.8682C35.7985 10.8619 35.8068 10.857 35.8158 10.8538C35.8249 10.8507 35.8344 10.8494 35.844 10.85H36.7487C36.7678 10.8505 36.7861 10.8581 36.7999 10.8714H36.8213L37.3163 11.3471L38.1314 12.0971L38.4899 12.4271L38.6265 12.5514C38.682 12.5814 38.7716 12.6757 38.6478 12.6885ZM40.995 12.6885C40.995 12.7113 40.986 12.7331 40.97 12.7491C40.954 12.7652 40.9322 12.7743 40.9096 12.7743H39.3178C39.2959 12.7732 39.2753 12.7636 39.2602 12.7477C39.2451 12.7317 39.2367 12.7105 39.2367 12.6885V12.05C39.2367 12.028 39.2451 12.0068 39.2602 11.9908C39.2753 11.9749 39.2959 11.9654 39.3178 11.9643H40.9096C40.9322 11.9643 40.954 11.9733 40.97 11.9894C40.986 12.0054 40.995 12.0272 40.995 12.05V12.6885ZM41.6863 12.8942V12.23C41.6874 12.2023 41.6992 12.1761 41.719 12.157C41.7389 12.1378 41.7654 12.1271 41.793 12.1271H42.5356C42.5627 12.1271 42.5888 12.138 42.608 12.1572C42.6272 12.1765 42.638 12.2027 42.638 12.23V12.8942C42.638 12.9219 42.6274 12.9486 42.6083 12.9685C42.5892 12.9885 42.5631 13.0003 42.5356 13.0014H41.793C41.7786 13.0014 41.7644 12.9985 41.7511 12.9929C41.7379 12.9872 41.726 12.9789 41.716 12.9685C41.7061 12.9581 41.6983 12.9458 41.6932 12.9323C41.6881 12.9188 41.6858 12.9044 41.6863 12.89V12.8942ZM43.0819 17.0128C43.0819 17.0435 43.0697 17.0729 43.0481 17.0946C43.0265 17.1163 42.9972 17.1285 42.9666 17.1285H42.2411C42.2113 17.1274 42.1831 17.1147 42.1624 17.0932C42.1417 17.0716 42.1302 17.0428 42.1302 17.0128V16.3614C42.1302 16.3318 42.1419 16.3035 42.1627 16.2826C42.1835 16.2617 42.2117 16.25 42.2411 16.25H42.9666C42.9965 16.2499 43.0251 16.2615 43.0466 16.2823C43.0681 16.3031 43.0807 16.3315 43.0819 16.3614V17.0128ZM43.9781 15.4228C43.9787 15.4365 43.9765 15.4501 43.9715 15.4629C43.9666 15.4757 43.9591 15.4872 43.9494 15.4969C43.9398 15.5066 43.9282 15.5141 43.9155 15.5191C43.9028 15.524 43.8893 15.5263 43.8757 15.5257H43.1246C43.1108 15.5263 43.097 15.524 43.084 15.5191C43.0711 15.5142 43.0593 15.5067 43.0493 15.4971C43.0394 15.4875 43.0314 15.476 43.026 15.4632C43.0206 15.4504 43.0179 15.4367 43.0179 15.4228V14.7457C43.019 14.718 43.0307 14.6918 43.0506 14.6727C43.0705 14.6535 43.097 14.6428 43.1246 14.6428H43.8757C43.8891 14.6428 43.9024 14.6455 43.9149 14.6506C43.9273 14.6558 43.9386 14.6634 43.9481 14.673C43.9576 14.6825 43.9651 14.6938 43.9703 14.7063C43.9754 14.7188 43.9781 14.7322 43.9781 14.7457V15.4228ZM44.4475 13.5243C44.4475 13.5519 44.4369 13.5786 44.4178 13.5985C44.3987 13.6185 44.3726 13.6303 44.3451 13.6314H43.6025C43.5749 13.6303 43.5489 13.6185 43.5298 13.5985C43.5107 13.5786 43.5001 13.5519 43.5001 13.5243V12.86C43.5001 12.8323 43.5107 12.8057 43.5298 12.7857C43.5489 12.7657 43.5749 12.7539 43.6025 12.7528H44.3451C44.3726 12.7539 44.3987 12.7657 44.4178 12.7857C44.4369 12.8057 44.4475 12.8323 44.4475 12.86V13.5243Z"
    fill="#B70039" />
  <path
    d="M37.4525 56.6942C37.3215 56.5644 37.2438 56.3901 37.2348 56.2056L37.1153 53.6599C37.1069 53.5474 37.1243 53.4345 37.1665 53.3299L37.3927 52.7299C37.4086 52.6934 37.4169 52.654 37.4169 52.6142C37.4169 52.5743 37.4086 52.5349 37.3927 52.4985L36.9659 51.6027C36.8982 51.4703 36.8645 51.323 36.8677 51.1742L36.9318 38.497C36.9323 38.3761 36.9044 38.2568 36.8502 38.1488C36.7961 38.0408 36.7173 37.9472 36.6203 37.8756L33.8804 35.8442C33.7097 35.7756 29.9115 29.9342 29.0025 28.5584C28.8826 28.3672 28.8427 28.1362 28.8916 27.9156L29.7195 24.2085C29.7338 24.1453 29.763 24.0864 29.8048 24.037L31.1918 22.1556C31.305 22.0062 31.3583 21.8197 31.3412 21.6327L31.162 19.3527C31.1538 19.2244 31.1094 19.101 31.0339 18.997L29.4762 16.777C29.4587 16.7553 29.4367 16.7379 29.4116 16.726C29.3865 16.7141 29.3589 16.7081 29.3312 16.7085H27.0736C26.924 16.7095 26.7769 16.6711 26.6468 16.597L20.8342 13.1042C20.7949 13.0827 20.7535 13.0654 20.7106 13.0527L14.1298 11.257C14.0726 11.2435 14.0188 11.2182 13.9719 11.1828C13.9249 11.1474 13.8857 11.1026 13.8567 11.0513L10.498 5.47988C10.4539 5.4083 10.3922 5.34927 10.3188 5.30845L10.242 5.26131C10.2211 5.24879 10.1966 5.24358 10.1723 5.24645C10.1481 5.24932 10.1255 5.26013 10.108 5.27721C10.0905 5.29429 10.0791 5.31669 10.0756 5.34093C10.072 5.36518 10.0765 5.38992 10.0884 5.41132L12.0515 9.50418C12.0604 9.5233 12.0638 9.5445 12.0615 9.56546C12.0593 9.58643 12.0513 9.60638 12.0386 9.62314C12.0259 9.63991 12.0088 9.65287 11.9892 9.6606C11.9697 9.66834 11.9485 9.67056 11.9277 9.66704L11.1382 9.47846C11.1118 9.47483 11.0867 9.46471 11.0652 9.44901C11.0436 9.43331 11.0262 9.41251 11.0145 9.38845C10.5493 8.46274 9.07695 6.46132 8.81662 5.03418C7.31662 5.86576 6.06619 7.08608 5.19549 8.56801C4.3248 10.0499 3.86578 11.7392 3.86623 13.4599V50.5484C3.86343 51.8151 4.10934 53.0698 4.58994 54.2409C5.07054 55.412 5.7764 56.4764 6.66708 57.3733C7.55775 58.2701 8.61574 58.9818 9.78059 59.4675C10.9454 59.9533 12.1943 60.2036 13.4556 60.2042H40.7001C40.6504 60.2041 40.6014 60.1938 40.5559 60.1739C40.5104 60.154 40.4694 60.1249 40.4355 60.0884L37.4525 56.6942ZM36.8378 55.477C36.8505 55.4764 36.8633 55.4785 36.8751 55.4829C36.887 55.4874 36.8979 55.4943 36.907 55.5031C36.9162 55.5119 36.9235 55.5225 36.9285 55.5342C36.9335 55.546 36.9361 55.5586 36.9361 55.5713V56.2699C36.9361 56.296 36.9258 56.3211 36.9073 56.3396C36.8889 56.3581 36.8639 56.3685 36.8378 56.3685H36.0655C36.0395 56.3685 36.0145 56.3581 35.9961 56.3396C35.9777 56.3211 35.9673 56.296 35.9673 56.2699V55.5713C35.9673 55.5586 35.9699 55.546 35.9748 55.5342C35.9798 55.5225 35.9871 55.5119 35.9963 55.5031C36.0055 55.4943 36.0163 55.4874 36.0282 55.4829C36.0401 55.4785 36.0528 55.4764 36.0655 55.477H36.8378ZM34.9644 50.3127C34.9644 50.3002 34.9694 50.2882 34.9782 50.2794C34.987 50.2706 34.9989 50.2656 35.0114 50.2656H35.8649C35.8774 50.2656 35.8892 50.2706 35.8981 50.2794C35.9069 50.2882 35.9118 50.3002 35.9118 50.3127V51.1056C35.9118 51.1181 35.9069 51.1301 35.8981 51.1389C35.8892 51.1478 35.8774 51.1527 35.8649 51.1527H35.0114C34.9989 51.1527 34.987 51.1478 34.9782 51.1389C34.9694 51.1301 34.9644 51.1181 34.9644 51.1056V50.3127ZM34.9644 52.5242C34.9644 52.4946 34.9761 52.4663 34.9969 52.4454C35.0177 52.4245 35.0459 52.4127 35.0754 52.4127H35.8179C35.8325 52.4127 35.847 52.4156 35.8604 52.4212C35.8739 52.4268 35.8861 52.435 35.8964 52.4454C35.9067 52.4557 35.9149 52.468 35.9205 52.4815C35.926 52.4951 35.9289 52.5095 35.9289 52.5242V53.1885C35.9289 53.2184 35.9174 53.2472 35.8967 53.2688C35.876 53.2904 35.8477 53.3031 35.8179 53.3042H35.0754C35.0604 53.3042 35.0457 53.3012 35.0319 53.2953C35.0182 53.2894 35.0057 53.2809 34.9953 53.27C34.985 53.2592 34.9769 53.2464 34.9716 53.2324C34.9663 53.2184 34.9638 53.2034 34.9644 53.1885V52.5242ZM35.1522 54.5342C35.1522 54.5615 35.1414 54.5876 35.1221 54.6069C35.1029 54.6262 35.0769 54.637 35.0497 54.637H34.2858C34.2586 54.637 34.2326 54.6262 34.2134 54.6069C34.1942 54.5876 34.1834 54.5615 34.1834 54.5342V53.8484C34.1834 53.8212 34.1942 53.795 34.2134 53.7757C34.2326 53.7564 34.2586 53.7456 34.2858 53.7456H35.0497C35.0769 53.7456 35.1029 53.7564 35.1221 53.7757C35.1414 53.795 35.1522 53.8212 35.1522 53.8484V54.5342ZM36.33 57.7399C36.3306 57.7526 36.3286 57.7654 36.3242 57.7773C36.3197 57.7892 36.3129 57.8001 36.3041 57.8093C36.2953 57.8186 36.2848 57.8259 36.2731 57.8309C36.2615 57.8359 36.2488 57.8385 36.2361 57.8384H35.4594C35.4467 57.8385 35.4342 57.8359 35.4225 57.8309C35.4108 57.8259 35.4003 57.8186 35.3915 57.8093C35.3827 57.8001 35.3759 57.7892 35.3715 57.7773C35.367 57.7654 35.365 57.7526 35.3655 57.7399V57.0456C35.365 57.0329 35.367 57.0201 35.3715 57.0082C35.3759 56.9963 35.3827 56.9854 35.3915 56.9762C35.4003 56.9669 35.4108 56.9596 35.4225 56.9546C35.4342 56.9496 35.4467 56.947 35.4594 56.947H36.2361C36.2488 56.947 36.2615 56.9496 36.2731 56.9546C36.2848 56.9596 36.2953 56.9669 36.3041 56.9762C36.3129 56.9854 36.3197 56.9963 36.3242 57.0082C36.3286 57.0201 36.3306 57.0329 36.33 57.0456V57.7399ZM37.4865 58.9356C37.4871 58.9483 37.4852 58.9611 37.4807 58.973C37.4762 58.9849 37.4694 58.9959 37.4606 59.0051C37.4518 59.0143 37.4413 59.0216 37.4296 59.0266C37.418 59.0316 37.4054 59.0342 37.3927 59.0342H36.616C36.6033 59.0342 36.5907 59.0316 36.579 59.0266C36.5674 59.0216 36.5568 59.0143 36.548 59.0051C36.5392 58.9959 36.5324 58.9849 36.528 58.973C36.5235 58.9611 36.5215 58.9483 36.522 58.9356V58.237C36.522 58.212 36.5319 58.188 36.5496 58.1704C36.5672 58.1527 36.5911 58.1427 36.616 58.1427H37.3927C37.4176 58.1427 37.4414 58.1527 37.459 58.1704C37.4766 58.188 37.4865 58.212 37.4865 58.237V58.9356Z"
    fill="#B70039" />
  <path
    d="M50.3875 0.748535H13.4555C10.0979 0.751937 6.87882 2.09258 4.50428 4.47638C2.12974 6.86018 0.793581 10.0925 0.789062 13.4642V50.5528C0.792452 53.9253 2.12805 57.1587 4.50271 59.5434C6.87738 61.9282 10.0972 63.2694 13.4555 63.2728H59.2173C60.2359 63.2728 61.2129 62.8664 61.9332 62.1431C62.6535 61.4197 63.0581 60.4386 63.0581 59.4157V13.4642C63.0547 10.0914 61.7184 6.85777 59.3427 4.47361C56.967 2.08944 53.7461 0.749669 50.3875 0.748535ZM61.3212 44.8314V59.6599C61.3212 60.1571 61.1248 60.6339 60.7752 60.9858C60.4256 61.3377 59.9512 61.536 59.4562 61.5371H13.4555C10.5556 61.5337 7.77539 60.3753 5.72486 58.3161C3.67434 56.2569 2.52086 53.465 2.51747 50.5528V13.4642C2.52086 10.5525 3.67453 7.76099 5.72518 5.70245C7.77583 3.64392 10.556 2.48651 13.4555 2.48424H50.3875C53.2862 2.48765 56.0653 3.64556 58.115 5.70397C60.1648 7.76238 61.3178 10.5532 61.3212 13.4642V44.8314Z"
    fill="#B70039" />
  <path
    d="M78.9038 28.6186V29.7758H68.3115V28.6358H68.6615C70.1324 28.5358 71.0059 28.3243 71.2819 28.0015C71.5579 27.6786 71.7001 26.6915 71.7086 25.0401V7.39579C71.7086 5.74151 71.5664 4.75578 71.2819 4.43864C71.0045 4.1215 70.1338 3.91578 68.6572 3.8215L68.3115 3.78292V2.64722H78.9038V3.78292L78.5581 3.8215C77.073 3.92007 76.1939 4.12579 75.9293 4.44293C75.6647 4.76007 75.5282 5.72863 75.5282 7.40006V25.0444C75.5282 26.6944 75.6647 27.6843 75.9336 28.0058C76.2024 28.3272 77.0772 28.5415 78.5624 28.6358L78.9038 28.6186Z"
    fill="#201F2C" />
  <path
    d="M87.9637 13.5541C88.7577 12.2738 89.8394 11.1979 91.1218 10.4127C92.3371 9.70941 93.718 9.34677 95.1205 9.3627C95.8736 9.32511 96.6255 9.45724 97.3211 9.74942C98.0168 10.0416 98.6385 10.4864 99.1407 11.0513C100.102 12.1798 100.585 13.7284 100.587 15.697V24.9884C100.678 26.8113 100.821 27.8384 101.014 28.0699C101.21 28.3013 102.085 28.4727 103.647 28.5799H103.976V29.7199H93.6183V28.5841H93.9469C95.5046 28.4727 96.3838 28.3013 96.5759 28.0656C96.7679 27.8299 96.913 26.8099 97.0026 24.9841V16.267C97.0026 14.5527 96.7793 13.3613 96.3326 12.6927C95.9058 12.0284 95.0907 11.6941 93.9469 11.6941C92.9998 11.7347 92.075 11.9959 91.2456 12.457C90.0681 13.0933 88.9705 13.8688 87.9765 14.767V24.997C87.9765 26.6598 88.1131 27.6499 88.3777 27.967C88.6423 28.2842 89.5257 28.4941 91.0151 28.5884H91.3565V29.7284H80.999V28.5884H81.3446C82.817 28.4898 83.6919 28.2756 83.965 27.9541C84.2381 27.6327 84.3918 26.6427 84.3918 24.9927V14.5741C84.3918 12.9256 84.2495 11.9413 83.965 11.6213C83.6805 11.3013 82.807 11.087 81.3446 10.9784H80.999V9.8427H87.9723L87.9637 13.5541Z"
    fill="#201F2C" />
  <path
    d="M106.26 29.1842V23.9556H108.18V24.2857C108.219 24.8985 108.236 25.3571 108.236 25.6614C108.216 26.0996 108.317 26.5348 108.527 26.9194C108.737 27.3041 109.048 27.6235 109.426 27.8428C110.705 28.6452 112.186 29.0645 113.694 29.0514C115.316 29.0514 116.582 28.5885 117.492 27.6628C118.403 26.7371 118.859 25.4614 118.862 23.8357C118.92 22.6825 118.612 21.5407 117.983 20.5742C117.4 19.7628 116.262 18.8828 114.569 17.9342L112.648 16.8371C108.509 14.4885 106.438 11.9271 106.435 9.15279C106.41 8.17701 106.597 7.20758 106.983 6.31149C107.368 5.41541 107.943 4.61404 108.667 3.9628C110.203 2.57341 112.216 1.83606 114.283 1.90564C115.344 1.90956 116.404 2.00276 117.45 2.18422C118.688 2.39494 119.912 2.68119 121.115 3.04136V7.86708H119.088V7.55423C119.05 6.89423 119.029 6.40994 119.029 6.10566C119.06 5.66446 118.975 5.22273 118.781 4.8253C118.588 4.42788 118.293 4.0889 117.927 3.84279C117.196 3.35993 116.05 3.1185 114.488 3.1185C113.898 3.09521 113.31 3.19777 112.763 3.41939C112.216 3.64102 111.721 3.97667 111.313 4.40421C110.898 4.86348 110.577 5.40047 110.369 5.98439C110.161 6.56831 110.07 7.18769 110.101 7.80707C110.064 8.86297 110.363 9.90318 110.954 10.7771C111.523 11.5571 112.535 12.3628 113.988 13.1942L115.905 14.2957C118.565 15.8071 120.356 17.1256 121.278 18.2514C122.229 19.4509 122.723 20.9527 122.669 22.4856C122.693 23.5539 122.48 24.6142 122.047 25.5901C121.614 26.5661 120.971 27.4335 120.164 28.1299C118.432 29.6516 116.19 30.4559 113.89 30.3799C112.517 30.3867 111.146 30.2835 109.789 30.0714C108.586 29.8938 107.404 29.5966 106.26 29.1842Z"
    fill="#201F2C" />
  <path
    d="M131.886 9.79564V24.9628C131.886 26.6256 132.023 27.6156 132.313 27.9371C132.603 28.2585 133.457 28.4599 134.946 28.5585H135.292V29.6942H124.938V28.5585L125.288 28.5371C126.762 28.4399 127.636 28.2285 127.909 27.9028C128.182 27.5814 128.335 26.5913 128.335 24.9413V14.5485C128.335 12.897 128.193 11.9128 127.909 11.5956C127.624 11.2785 126.751 11.0656 125.288 10.9571H124.938V9.81706L131.886 9.79564ZM128.284 6.18707V2.57422H131.882V6.20421L128.284 6.18707Z"
    fill="#201F2C" />
  <path
    d="M140.041 28.9401C138.667 28.3058 137.979 27.4386 137.976 26.3386C138.01 25.6372 138.316 24.9771 138.829 24.5001C139.592 23.7679 140.472 23.1696 141.433 22.7301C140.199 22.2185 139.145 21.3484 138.407 20.2315C137.707 19.0703 137.354 17.7313 137.391 16.3743C137.391 14.24 138.068 12.5358 139.423 11.2615C140.777 9.98719 142.595 9.34863 144.877 9.34578C146.17 9.32594 147.453 9.58764 148.637 10.1129L155.597 9.55577L154.684 11.7629L149.917 10.9958C150.656 11.6692 151.247 12.4909 151.65 13.4077C152.054 14.3246 152.261 15.3162 152.26 16.3186C152.288 17.2607 152.12 18.1983 151.766 19.0713C151.413 19.9444 150.882 20.7337 150.207 21.3886C149.513 22.0574 148.692 22.5795 147.793 22.924C146.895 23.2685 145.936 23.4285 144.975 23.3943C144.108 23.3865 143.247 23.2596 142.414 23.0172C142.028 23.3042 141.699 23.6619 141.446 24.0715C141.233 24.4277 141.121 24.835 141.121 25.2501C141.121 26.1072 141.882 26.5358 143.404 26.5358H146.562C149.595 26.5358 151.684 26.8586 152.827 27.5043C153.971 28.1501 154.54 29.3286 154.534 31.0401C154.534 32.9601 153.671 34.4986 151.944 35.6558C150.217 36.8129 147.928 37.3929 145.077 37.3958C142.363 37.3958 140.178 37.0086 138.522 36.2343C136.866 35.4601 136.037 34.43 136.034 33.1443C136.042 32.7153 136.134 32.292 136.304 31.8985C136.475 31.5051 136.721 31.1493 137.028 30.8515C137.896 30.0193 138.92 29.3695 140.041 28.9401ZM140.993 29.2486C140.557 29.6657 140.213 30.1692 139.982 30.7272C139.751 31.3 139.636 31.9135 139.645 32.5315C139.611 33.0853 139.723 33.6383 139.968 34.1353C140.214 34.6324 140.585 35.0561 141.044 35.3643C141.975 35.9958 143.372 36.3101 145.235 36.3072C147.016 36.3072 148.432 35.9143 149.481 35.1286C149.986 34.7729 150.394 34.2968 150.67 33.7432C150.946 33.1896 151.08 32.5759 151.06 31.9572C151.084 31.565 151.009 31.1732 150.843 30.8175C150.677 30.4619 150.424 30.1538 150.109 29.9215C149.472 29.4701 148.516 29.2443 147.241 29.2443L140.993 29.2486ZM140.993 16.2072C140.993 18.2072 141.317 19.7186 141.966 20.7415C142.268 21.2305 142.695 21.6292 143.202 21.8961C143.71 22.1629 144.279 22.2881 144.851 22.2586C145.42 22.2891 145.988 22.1646 146.492 21.8984C146.997 21.6321 147.421 21.2339 147.719 20.7458C148.351 19.7429 148.665 18.2343 148.662 16.2201C148.662 12.3715 147.395 10.4472 144.86 10.4472C144.293 10.4136 143.728 10.5282 143.22 10.7799C142.711 11.0315 142.276 11.4116 141.958 11.8829C141.332 12.8429 141.019 14.2844 141.019 16.2072H140.993Z"
    fill="#201F2C" />
  <path
    d="M163.753 13.49C164.548 12.2106 165.63 11.135 166.911 10.3486C168.126 9.64568 169.507 9.28307 170.91 9.29858C171.663 9.26006 172.415 9.39178 173.111 9.68402C173.807 9.97626 174.428 10.4216 174.93 10.9872C175.894 12.11 176.377 13.6586 176.377 15.6329V24.9243C176.462 26.7472 176.604 27.7729 176.803 28.0014C176.995 28.2372 177.875 28.4043 179.432 28.5157H179.761V29.6515H169.408V28.5157H169.736C171.298 28.4043 172.173 28.2329 172.369 27.9972C172.566 27.7614 172.702 26.7372 172.796 24.9157V16.2114C172.796 14.4972 172.57 13.3057 172.126 12.6372C171.682 11.9686 170.888 11.6386 169.745 11.6386C168.796 11.6787 167.87 11.9398 167.039 12.4015C165.861 13.0354 164.765 13.8111 163.774 14.7114V24.9414C163.774 26.6043 163.908 27.5943 164.175 27.9115C164.444 28.2286 165.323 28.4386 166.813 28.5329H167.159V29.6729H156.81V28.5372H157.16C158.632 28.4386 159.502 28.2243 159.78 27.9029C160.057 27.5815 160.207 26.5915 160.207 24.9372V5.48002C160.207 3.83002 160.066 2.84004 159.78 2.51861C159.494 2.19718 158.632 1.98288 157.16 1.88859L156.814 1.86717V0.731445H163.791L163.753 13.49Z"
    fill="#201F2C" />
  <path
    d="M190.763 29.5614C189.938 29.9211 189.05 30.1148 188.151 30.1314C186.048 30.1314 184.512 29.6 183.542 28.5371C182.572 27.4742 182.085 25.7814 182.082 23.4585V11.2442H179.163V9.76138H182.086V6.14852L185.684 5.24854V9.76138H191.232V11.2442H185.684V23.9385C185.684 25.6528 185.91 26.8685 186.363 27.5857C186.815 28.3028 187.586 28.6628 188.676 28.6657C189.404 28.626 190.115 28.4317 190.763 28.0957V29.5614Z"
    fill="#201F2C" />
  <path
    d="M90.2892 59.613C87.6845 61.0767 84.7382 61.8164 81.754 61.7559C77.603 61.7559 74.3311 60.4801 71.9384 57.9287C69.5457 55.3773 68.3465 51.8873 68.3408 47.4587C68.3408 42.9702 69.4888 39.4816 71.7848 36.993C74.0808 34.5044 77.3071 33.2587 81.4638 33.2559C83.5805 33.2559 86.3631 33.7059 89.8113 34.6059V39.7959H87.5622L87.5366 39.4316C87.5366 39.063 87.5068 38.703 87.4897 38.3473C87.4948 37.7678 87.3426 37.1978 87.0493 36.6987C86.7561 36.1996 86.3329 35.7902 85.8253 35.5144C84.7186 34.823 83.2107 34.4787 81.3017 34.4816C78.5647 34.4816 76.3825 35.6573 74.7551 38.0087C73.1277 40.3602 72.3154 43.503 72.3183 47.4373C72.3183 51.3773 73.2756 54.4487 75.1904 56.6516C77.1051 58.8544 79.7667 59.9559 83.1751 59.9559C85.4028 59.9559 87.777 59.263 90.2978 57.8773L90.2892 59.613Z"
    fill="#201F2C" />
  <path
    d="M99.7132 46.567V56.3041C99.7132 57.9527 99.8555 58.9427 100.14 59.2741C100.426 59.6041 101.301 59.8141 102.76 59.8956H103.546V61.0613H92.7314V59.9213H93.077C94.5508 59.8241 95.4243 59.6127 95.6974 59.287C95.9706 58.9613 96.1128 57.9741 96.1242 56.3256V45.907C96.1242 44.2584 95.9819 43.2741 95.6974 42.9541C95.4129 42.6341 94.5394 42.4213 93.077 42.3156L92.7314 42.2941V41.1584H99.7047V44.8998C101.346 42.097 103.494 40.6956 106.149 40.6956C106.565 40.7024 106.977 40.7703 107.374 40.897V46.3441H105.346L105.325 46.0141C105.279 45.3277 105.16 44.6482 104.971 43.987C104.866 43.7727 104.588 43.6656 104.139 43.6656C102.346 43.657 100.871 44.6241 99.7132 46.567Z"
    fill="#201F2C" />
  <path
    d="M116.502 41.1244V56.2915C116.502 57.9544 116.638 58.9444 116.903 59.2615C117.167 59.5787 118.046 59.7887 119.536 59.883H119.882V61.0615H109.528V59.9258L109.874 59.9044C111.345 59.8044 112.218 59.593 112.494 59.2701C112.77 58.9473 112.913 57.9601 112.921 56.3087V45.8901C112.921 44.2401 112.78 43.2544 112.494 42.9373C112.208 42.6201 111.346 42.4058 109.874 42.2987H109.528V41.1587L116.502 41.1244ZM112.904 37.5158V33.8987H116.502V37.5115L112.904 37.5158Z"
    fill="#201F2C" />
  <path
    d="M129.069 44.8229C129.955 43.5849 131.064 42.5239 132.338 41.6943C133.407 41.0199 134.643 40.6592 135.906 40.6529C137.141 40.5833 138.361 40.9503 139.354 41.69C140.265 42.4938 140.85 43.6057 140.997 44.8143C141.979 43.579 143.164 42.5209 144.501 41.6857C145.572 41.0228 146.802 40.663 148.06 40.6443C151.614 40.6443 153.393 42.6014 153.399 46.5157V56.2657C153.399 57.9286 153.531 58.9143 153.796 59.2271C154.06 59.54 154.935 59.75 156.433 59.8571H156.783V60.9971H146.425V59.8614H146.771C148.269 59.75 149.148 59.5357 149.413 59.2271C149.677 58.9186 149.806 57.9414 149.801 56.2657V47.1629C149.801 45.58 149.596 44.4857 149.187 43.88C148.777 43.2743 148.047 42.9714 146.997 42.9714C146.03 42.9969 145.084 43.2635 144.245 43.7471C143.137 44.3737 142.122 45.1543 141.232 46.0657V56.2743C141.232 57.9229 141.367 58.91 141.637 59.2357C141.907 59.5614 142.784 59.7714 144.266 59.8657H144.612V61.0057H134.254V59.8657H134.6C136.096 59.7657 136.977 59.5571 137.242 59.24C137.506 58.9229 137.636 57.9329 137.63 56.27V47.1629C137.63 45.6057 137.429 44.5186 137.028 43.9014C136.623 43.28 135.919 42.9714 134.894 42.9714C133.884 42.9911 132.894 43.2574 132.009 43.7471C130.915 44.3599 129.923 45.1407 129.069 46.0614V56.27C129.069 57.9329 129.206 58.9229 129.47 59.24C129.735 59.5571 130.614 59.7672 132.103 59.8614H132.449V60.9971H122.096V59.8571H122.441C123.912 59.7571 124.786 59.5457 125.062 59.2229C125.338 58.9 125.48 57.9129 125.489 56.2614V45.8429C125.489 44.1929 125.348 43.2071 125.062 42.89C124.776 42.5729 123.914 42.3586 122.441 42.2514H122.096V41.1157H129.069V44.8229Z"
    fill="#201F2C" />
  <path
    d="M173.064 60.1014C171.081 60.9457 168.957 61.408 166.804 61.4642C163.893 61.4642 161.527 60.4814 159.707 58.5156C157.886 56.5499 156.972 53.9914 156.967 50.8399C156.967 47.8571 157.782 45.4099 159.412 43.4985C160.174 42.5745 161.135 41.8361 162.223 41.3387C163.31 40.8414 164.495 40.5981 165.69 40.6271C168.054 40.6271 169.872 41.4256 171.144 43.0228C172.416 44.6199 173.054 46.9056 173.06 49.8799V50.2271H160.948C160.948 53.3299 161.489 55.6728 162.57 57.2556C163.651 58.8385 165.25 59.6299 167.367 59.6299C169.354 59.6862 171.321 59.2099 173.064 58.2499V60.1014ZM161.021 49.1042H169.24V48.2985C169.24 45.9871 168.942 44.3185 168.344 43.2928C167.747 42.2642 166.769 41.7499 165.421 41.7542C164.072 41.7585 162.993 42.4228 162.199 43.7556C161.405 45.0885 161.021 46.8671 161.021 49.1042Z"
    fill="#201F2C" />
</svg>